<?xml version="1.0" standalone="no"?>
<!DOCTYPE svg PUBLIC "-//W3C//DTD SVG 20010904//EN"
 "http://www.w3.org/TR/2001/REC-SVG-20010904/DTD/svg10.dtd">
<svg version="1.0" xmlns="http://www.w3.org/2000/svg"
 width="512.000000pt" height="512.000000pt" viewBox="0 0 512.000000 512.000000"
 preserveAspectRatio="xMidYMid meet">
<metadata>
Created by potrace 1.14, written by Peter Selinger 2001-2017
</metadata>
<g transform="translate(0.000000,512.000000) scale(0.100000,-0.100000)"
fill="#000000" stroke="none">
<path d="M2458 5106 c-20 -6 -48 -21 -62 -33 -14 -13 -26 -20 -26 -17 0 4 -8
-4 -19 -17 -24 -32 -58 -102 -67 -142 -11 -47 -12 -320 -1 -334 6 -8 6 -13 0
-13 -5 0 -9 -10 -7 -22 1 -13 3 -23 4 -23 1 0 3 -10 6 -23 10 -53 57 -131 98
-160 56 -40 97 -52 175 -52 64 0 161 25 161 42 0 4 5 8 11 8 11 0 39 24 39 34
0 3 9 15 20 26 12 12 18 25 15 30 -3 4 0 10 5 12 6 2 13 14 15 28 3 14 8 36
11 50 11 45 11 314 0 329 -9 12 -8 13 3 7 10 -6 12 -4 8 10 -3 11 -9 36 -13
57 -3 20 -10 40 -15 43 -5 3 -9 12 -9 21 0 28 -68 100 -117 124 -54 26 -174
34 -235 15z"/>
<path d="M888 4375 c-2 -2 -19 -5 -38 -8 -63 -9 -108 -35 -168 -97 -35 -37
-74 -108 -66 -122 3 -4 1 -8 -4 -8 -13 0 -6 -124 7 -128 6 -2 11 -13 11 -24 0
-32 52 -97 171 -214 111 -107 190 -169 203 -157 3 4 6 1 6 -6 0 -7 4 -10 9 -6
5 3 12 1 16 -4 8 -14 124 -6 167 12 20 8 61 39 90 69 81 79 107 159 84 258
-14 60 -58 122 -166 230 -122 123 -183 170 -240 188 -48 14 -78 20 -82 17z"/>
<path d="M4145 4356 c-67 -26 -99 -51 -223 -175 -152 -152 -186 -209 -184
-311 1 -79 30 -136 101 -202 47 -44 62 -53 84 -49 4 0 7 -3 7 -7 0 -10 6 -11
80 -16 30 -2 61 0 68 6 6 6 12 8 12 5 0 -3 14 -1 30 4 17 6 30 15 30 20 0 5 7
9 15 9 25 0 279 254 309 310 15 27 24 50 19 50 -4 0 -1 4 7 10 11 7 14 27 13
81 0 39 -5 74 -9 78 -5 3 -10 12 -12 20 -8 37 -91 123 -152 158 -41 24 -146
29 -195 9z"/>
<path d="M2440 3985 c0 -9 -32 -14 -112 -19 -16 0 -28 -4 -28 -7 0 -3 -6 -6
-12 -6 -120 -5 -401 -126 -562 -241 -84 -61 -225 -194 -266 -252 -14 -19 -32
-42 -40 -52 -25 -28 -34 -41 -67 -94 -40 -66 -122 -235 -128 -263 -2 -11 -7
-26 -10 -31 -3 -5 -8 -18 -10 -27 -3 -10 -15 -62 -29 -115 -13 -54 -21 -99
-19 -102 3 -3 2 -10 -3 -17 -14 -23 -20 -225 -10 -329 8 -80 14 -112 40 -230
17 -75 85 -242 138 -337 33 -59 63 -110 67 -113 3 -3 20 -23 36 -45 16 -22 36
-48 45 -59 25 -31 170 -176 176 -176 3 0 15 -9 27 -21 42 -40 185 -129 268
-168 169 -79 323 -123 484 -136 17 -2 32 -4 35 -5 14 -5 210 -4 210 1 0 4 12
6 28 6 35 0 123 12 162 23 17 5 31 9 33 8 7 -1 125 35 139 42 10 6 23 10 30
10 15 0 220 98 228 109 3 4 25 19 50 33 25 14 55 34 67 45 12 10 36 29 53 42
70 54 197 189 250 266 19 27 41 56 48 63 6 7 12 20 12 28 0 8 4 14 8 14 5 0
22 28 38 63 16 34 32 64 35 67 3 3 8 14 12 25 3 11 18 54 34 95 16 41 30 77
30 80 0 3 6 23 11 45 6 22 14 58 17 80 4 22 9 54 12 70 3 17 6 51 7 77 0 27 3
48 6 48 4 0 4 166 0 173 -1 1 -3 20 -5 42 -7 79 -13 120 -17 135 -6 16 -27
104 -33 130 -17 83 -149 358 -195 407 -9 11 -19 24 -21 30 -17 47 -274 303
-305 303 -7 0 -14 4 -14 9 0 8 -66 56 -85 61 -5 1 -21 10 -35 20 -85 60 -304
143 -430 164 -19 3 -46 8 -60 11 -66 14 -300 24 -300 13 0 -11 -23 -5 -32 7
-5 7 -8 7 -8 0z"/>
<path d="M256 2842 c-2 -1 -16 -4 -32 -6 -16 -2 -50 -15 -77 -29 -26 -14 -47
-23 -47 -20 0 18 -72 -89 -85 -125 -18 -55 -14 -172 10 -229 28 -68 121 -138
195 -146 14 -2 30 -6 35 -8 13 -7 329 -2 373 5 18 3 38 9 45 13 6 4 17 8 24 9
25 4 93 60 110 92 10 17 20 32 24 32 8 0 9 9 15 117 5 84 4 95 -20 143 -28 55
-48 80 -65 80 -6 0 -11 5 -11 10 0 12 -77 47 -118 54 -15 2 -27 5 -27 6 0 3
-346 5 -349 2z"/>
<path d="M4515 2842 c-1 -2 -14 -5 -27 -7 -49 -9 -120 -47 -151 -80 -47 -51
-60 -86 -65 -179 -5 -99 10 -148 61 -208 26 -30 114 -78 144 -78 11 0 23 -3
27 -7 7 -8 325 -12 340 -5 5 3 23 6 40 8 97 9 177 67 214 153 24 57 25 174 2
234 -20 52 -103 143 -121 132 -5 -4 -9 -2 -9 4 0 20 -118 35 -283 35 -93 1
-170 0 -172 -2z"/>
<path d="M1207 1384 c-2 -3 -14 -7 -27 -9 -62 -12 -120 -55 -246 -182 -145
-146 -175 -193 -182 -286 -4 -60 17 -137 45 -165 7 -7 18 -21 25 -30 63 -87
202 -129 295 -90 16 6 31 11 36 10 4 -1 7 3 7 9 0 5 4 7 10 4 12 -7 301 275
294 287 -3 4 -1 8 4 8 9 0 23 25 44 75 13 33 19 155 8 155 -4 0 -10 13 -13 29
-11 54 -130 161 -197 178 -28 7 -98 12 -103 7z"/>
<path d="M3811 1378 c-49 -13 -103 -50 -147 -102 -76 -89 -90 -182 -43 -284
24 -53 53 -89 161 -198 73 -73 135 -131 140 -128 4 3 8 1 8 -4 0 -16 99 -53
151 -56 27 -2 49 1 49 6 0 5 4 7 10 3 15 -9 93 32 134 73 90 87 118 183 83
282 -26 73 -50 103 -188 240 -80 81 -132 124 -171 143 -60 30 -133 39 -187 25z"/>
<path d="M2435 829 c-22 -11 -52 -29 -67 -42 -34 -29 -87 -133 -83 -164 1 -13
-1 -23 -4 -23 -4 0 -6 -80 -6 -177 1 -143 5 -189 20 -232 16 -49 65 -135 65
-115 0 5 7 -1 15 -13 36 -51 182 -77 279 -49 56 17 146 87 146 115 0 7 7 19
15 27 8 8 12 21 9 29 -4 8 -1 15 4 15 6 0 9 11 6 25 -2 14 -1 25 3 25 5 0 8
77 8 170 0 94 -2 170 -5 170 -4 0 -5 14 -4 30 1 17 -2 30 -8 30 -5 0 -7 4 -4
9 7 10 -16 61 -27 61 -5 0 -6 4 -3 9 9 14 -59 76 -109 100 -61 28 -190 28
-250 0z"/>
</g>
</svg>
